<?xml version="1.0" ?><svg height="48" id="黑白" viewBox="0 0 48 48" width="48" xmlns="http://www.w3.org/2000/svg"><title/><path d="M37.45,25a1.38,1.38,0,0,0-1.6,1.11A11.93,11.93,0,1,1,21.08,12.46,11.92,11.92,0,0,1,35.64,21a1.38,1.38,0,0,0,2.67-.7A14.69,14.69,0,1,0,24.1,38.69a14.89,14.89,0,0,0,3.72-.48A14.74,14.74,0,0,0,38.56,26.58,1.37,1.37,0,0,0,37.45,25Zm-5.17-1a1.37,1.37,0,0,0-1.38-1.37H21.55l4-4a1.39,1.39,0,0,0,0-2,1.38,1.38,0,0,0-2,0L17.26,23h0a1.37,1.37,0,0,0,0,1.95h0l6.3,6.3a1.37,1.37,0,0,0,1,.41,1.38,1.38,0,0,0,1-2.35l-4-4H30.9A1.38,1.38,0,0,0,32.28,24Z"/></svg>